<svg width="21" height="22" viewBox="0 0 21 22" fill="none" xmlns="http://www.w3.org/2000/svg">
<g id="icon-twitter">
<circle id="Oval" cx="10.3711" cy="11" r="10.2823" fill="#03A9F4"/>
<path id="Path" d="M16.9818 7.16127C16.496 7.38389 15.9735 7.53242 15.4223 7.6027C15.9826 7.25852 16.4137 6.70959 16.616 6.06112C16.0917 6.37909 15.5108 6.61272 14.8928 6.7358C14.3993 6.19446 13.6954 5.85864 12.9155 5.85864C11.4173 5.85864 10.203 7.10391 10.203 8.63941C10.203 8.85671 10.2276 9.0683 10.2739 9.27382C8.02005 9.15682 6.02106 8.04831 4.68374 6.36617C4.44874 6.77721 4.31655 7.25852 4.31655 7.76643C4.31655 8.73172 4.79427 9.58153 5.52278 10.0822C5.07811 10.0682 4.65951 9.94014 4.29305 9.735C4.29305 9.74336 4.29305 9.7559 4.29305 9.76767C4.29305 11.1167 5.22829 12.24 6.46793 12.4956C6.24137 12.5598 6.00196 12.5955 5.75521 12.5955C5.58006 12.5955 5.40931 12.575 5.24408 12.5443C5.58924 13.6467 6.59057 14.4524 7.77697 14.4764C6.84871 15.2209 5.67957 15.6669 4.40835 15.6669C4.18876 15.6669 3.97396 15.654 3.76172 15.6274C4.96281 16.4142 6.38898 16.8753 7.91981 16.8753C12.9081 16.8753 15.6371 12.6373 15.6371 8.96079C15.6371 8.84037 15.6334 8.72033 15.6279 8.6018C16.1604 8.2128 16.6193 7.72199 16.9818 7.16127Z" fill="white"/>
</g>
</svg>
