<svg width="22" height="22" viewBox="0 0 22 22" fill="none" xmlns="http://www.w3.org/2000/svg">
<g id="icon-pinterest">
<circle id="Oval" cx="10.9512" cy="11" r="10.2823" fill="#D32F2F"/>
<path id="Path" d="M8.66951 12.5422C8.66951 10.8307 8.38058 10.238 8.38058 9.56653C8.38058 8.04013 9.47615 7.9152 9.93937 7.9152C10.5995 7.9152 11.4653 8.36299 11.4653 9.20048C11.4653 10.4194 10.437 10.5737 10.437 10.5737C10.437 10.5737 10.437 10.9999 10.437 11.7505C10.437 12.5422 10.6283 13.5704 12.0426 13.5704C14.3119 13.5704 14.5499 10.4076 14.5499 9.54134C14.5499 8.34397 13.7839 5.85874 11.0606 5.85874C7.42844 5.85874 6.83824 9.10434 6.83824 9.97165C6.83824 10.3428 6.9061 11.0626 6.97653 11.3428C8.05926 11.6101 7.80683 12.5638 7.51327 12.8311C7.08707 13.225 5.2959 13.3016 5.2959 9.62462C5.2959 6.12248 8.41759 4.31641 11.1578 4.31641C13.7654 4.31641 16.6064 6.11683 16.6064 9.58401C16.6064 12.6779 14.3818 15.1143 12.0452 15.1143C10.6427 15.1143 9.89875 13.9586 9.89875 13.9586C9.89875 16.141 8.12095 19.2684 7.86646 19.7398C7.86646 19.7398 8.66951 15.702 8.66951 12.5422Z" fill="white"/>
</g>
</svg>
