<svg width="22" height="22" viewBox="0 0 22 22" fill="none" xmlns="http://www.w3.org/2000/svg">
<g id="icon-link">
<circle id="Oval" cx="11.21" cy="11" r="10.2823" fill="url(#paint0_radial_6412_18729)"/>
<path id="Union" d="M13.7402 5.51611C15.3681 5.51616 16.6934 6.84098 16.6934 8.46924V13.5308C16.6934 15.159 15.3681 16.4838 13.7402 16.4839H8.67773C7.05004 16.4837 5.72559 15.1589 5.72559 13.5308V8.46924C5.72559 6.84108 7.05004 5.51632 8.67773 5.51611H13.7402ZM8.67773 6.35986C7.5149 6.36007 6.56934 7.30636 6.56934 8.46924V13.5308C6.56934 14.6936 7.5149 15.6399 8.67773 15.6401H13.7402C14.9032 15.6401 15.8496 14.6937 15.8496 13.5308V8.46924C15.8496 7.30627 14.9032 6.35991 13.7402 6.35986H8.67773ZM11.209 8.04736C12.8369 8.04736 14.1621 9.3722 14.1621 11.0005C14.162 12.6287 12.8368 13.9536 11.209 13.9536C9.58131 13.9535 8.25695 12.6286 8.25684 11.0005C8.25684 9.37229 9.58123 8.0475 11.209 8.04736ZM11.209 8.89111C10.0461 8.89125 9.09961 9.83757 9.09961 11.0005C9.09972 12.1633 10.0462 13.1097 11.209 13.1099C12.3719 13.1099 13.3182 12.1634 13.3184 11.0005C13.3184 9.83749 12.372 8.89111 11.209 8.89111ZM14.3721 7.20361C14.7215 7.20361 15.0049 7.48697 15.0049 7.83643C15.0047 8.18572 14.7214 8.46924 14.3721 8.46924C14.0229 8.46899 13.7404 8.18556 13.7402 7.83643C13.7402 7.48712 14.0228 7.20387 14.3721 7.20361Z" fill="white"/>
</g>
<defs>
<radialGradient id="paint0_radial_6412_18729" cx="0" cy="0" r="1" gradientUnits="userSpaceOnUse" gradientTransform="translate(8.57256 21.2971) scale(25.6344 25.6344)">
<stop stop-color="#FFDD55"/>
<stop offset="0.328" stop-color="#FF543F"/>
<stop offset="0.348" stop-color="#FC5245"/>
<stop offset="0.504" stop-color="#E64771"/>
<stop offset="0.643" stop-color="#D53E91"/>
<stop offset="0.761" stop-color="#CC39A4"/>
<stop offset="0.841" stop-color="#C837AB"/>
</radialGradient>
</defs>
</svg>
