<svg width="22" height="22" viewBox="0 0 22 22" fill="none" xmlns="http://www.w3.org/2000/svg">
<g id="icon-link">
<circle id="Oval" cx="10.7901" cy="11" r="10.2823" fill="#1976D2"/>
<path id="Combined Shape" d="M6.38574 11.149C7.56206 9.97239 9.47191 9.96788 10.6426 11.1393C11.8036 12.3009 11.8245 14.1759 10.6904 15.4078L10.0811 16.0182C8.82603 17.1759 6.95183 17.1545 5.79004 15.9928C4.61937 14.8218 4.62389 12.9112 5.7998 11.735L6.38574 11.149ZM9.50098 12.2809C8.95964 11.7395 8.0743 11.7443 7.52734 12.2906L6.94141 12.8766C6.39491 13.4232 6.39055 14.3091 6.93164 14.8502C7.4786 15.3973 8.37167 15.399 8.96387 14.8531L9.52637 14.2897C10.0495 13.7211 10.0479 12.828 9.50098 12.2809ZM11.5254 6.01038C12.7016 4.83383 14.6106 4.82855 15.7812 5.99963C16.943 7.16175 16.9648 9.03719 15.8301 10.2692L15.2207 10.8785C13.9653 12.0362 12.0905 12.0153 10.9287 10.8531C9.75841 9.68256 9.76335 7.77287 10.9395 6.59631L11.5254 6.01038ZM14.6406 7.14124C14.0993 6.60015 13.214 6.60524 12.667 7.15198L12.0811 7.73792C11.5345 8.28465 11.53 9.17006 12.0713 9.71155C12.6179 10.2581 13.511 10.2594 14.1035 9.7135L14.666 9.15002C15.1881 8.58148 15.1875 7.68829 14.6406 7.14124Z" fill="white"/>
<path id="Path" d="M8.81519 12.9749C8.51082 12.6709 8.51082 12.1771 8.81519 11.8727L12.3975 8.2903C12.7019 7.98592 13.1953 7.98592 13.5001 8.2903C13.804 8.59468 13.804 9.08846 13.5001 9.39245L9.91772 12.9749C9.61335 13.2792 9.11996 13.2792 8.81519 12.9749Z" fill="#32C5FF"/>
</g>
</svg>
