<?xml version="1.0" encoding="utf-8"?>
<!-- Generator: Adobe Illustrator 26.0.1, SVG Export Plug-In . SVG Version: 6.00 Build 0)  -->
<svg version="1.1" id="Layer_1" xmlns="http://www.w3.org/2000/svg" xmlns:xlink="http://www.w3.org/1999/xlink" x="0px" y="0px"
	 viewBox="0 0 406 406" style="enable-background:new 0 0 406 406;" xml:space="preserve">
<style type="text/css">
	.st0{fill:none;stroke:#000000;stroke-width:19;stroke-miterlimit:10;}
	.st1{fill:none;stroke:#000000;stroke-width:17.38;stroke-miterlimit:10;}
	.st2{fill:none;}
	.st3{fill:#2E368F;stroke:#F7941D;stroke-width:6;stroke-miterlimit:10;}
	.st4{fill:#FFFFFF;stroke:#FFFFFF;stroke-width:6;stroke-miterlimit:10;}
	.st5{fill:#1B6394;}
</style>
<path class="st0" d="M17.5,320.5"/>
<path class="st0" d="M17.3,411.5"/>
<path class="st1" d="M27.9,384.8"/>
<path class="st0" d="M156.7,260.9"/>
<line class="st2" x1="152.1" y1="157.1" x2="213.1" y2="157.1"/>
<path class="st3" d="M17.5,320.1"/>
<circle class="st4" cx="204.7" cy="203.9" r="200"/>
<g>
	<path class="st5" d="M336.9,193.1c0,10.5-3.5,20.4-7.5,30.1c-9.9,24.2-23,46.6-36.8,68.7c-5.8,9.3-11.9,18.4-17.9,27.6
		c-2.4,3.7-5.4,3.8-7.8,0.2c-19.5-29-38.1-58.6-52.4-90.6c-4.6-10.3-9.2-20.8-9.7-32.2c-1.1-24.6,8.9-44.2,29.2-57.9
		c41.1-27.8,97.1-1.6,102.6,47.8C336.8,188.8,336.8,190.9,336.9,193.1z M246.1,179c-0.1,13.7,10.8,24.8,24.4,24.9
		c13.4,0.1,24.7-10.9,24.8-24.2c0.1-13.8-10.8-24.9-24.6-25C257.2,154.7,246.2,165.6,246.1,179z"/>
	<path class="st5" d="M175,140c0.1,4.3-2.2,10.3-4.8,16.3c-7.3,16.9-17.1,32.4-27.4,47.6c-2,3-5.2,3.2-7.1,0.4
		C124,186.8,112.6,169,105.3,149c-6.3-17.4,3.6-36.2,19.3-43.2c16.2-7.2,35.6-1.4,45,13.8C173,125.1,174.8,131.1,175,140z M139,145
		c7.7,0.1,14-6.1,14.1-13.6c0.1-7.6-6-14-13.6-14.1c-7.9-0.1-14.2,5.9-14.2,13.8C125.2,138.7,131.3,144.9,139,145z"/>
	<path class="st5" d="M219.4,316.6c8.5,0,17,0,25.5,0c3.5,0,6,2.3,6.2,5.6c0.2,3.3-2.1,6-5.7,6.4c-0.9,0.1-1.8,0.1-2.8,0.1
		c-15.3-0.3-30.6-0.4-45.8-1.1c-18.6-0.9-37.2-2.8-55.5-6.6c-10.4-2.2-20.6-4.8-29.9-9.9c-2.9-1.6-5.8-3.5-8.3-5.8
		c-9.3-8.5-9-21.4,0.7-29.5c5.9-4.9,12.9-7.7,20.1-9.6c13.9-3.7,27.8-6.9,41.7-10.5c4.1-1.1,8.2-2.7,12.1-4.4c2-0.8,3.8-2,5.5-3.3
		c5.3-4.2,5.1-8.4-0.7-11.9c-8.6-5.2-18.3-7.1-28-8.7c-1.9-0.3-3.9-0.4-5.8-0.8c-3.5-0.6-5.7-3.7-5.3-6.8c0.5-3.3,3.4-5.6,6.9-5.2
		c11.9,1.5,23.7,3.6,34.6,9.1c2.5,1.2,4.8,2.7,7,4.4c9.1,7.3,9.7,18.8,1.4,27.1c-5.7,5.7-12.9,8.8-20.4,10.8
		c-12.3,3.4-24.8,6.2-37.2,9.4c-5.3,1.4-10.6,3-15.8,5c-2.9,1.1-5.8,2.7-8.2,4.7c-4.4,3.4-4.6,8.1-0.1,11.4
		c4.3,3.1,9.2,5.9,14.2,7.8c12,4.6,24.7,6.7,37.5,8c18.7,1.9,37.4,3.2,56.1,4.8C219.3,316.9,219.3,316.8,219.4,316.6z"/>
</g>
</svg>
