<?xml version="1.0" encoding="utf-8"?>
<!-- Generator: Adobe Illustrator 26.0.1, SVG Export Plug-In . SVG Version: 6.00 Build 0)  -->
<svg version="1.1" id="Layer_1" xmlns="http://www.w3.org/2000/svg" xmlns:xlink="http://www.w3.org/1999/xlink" x="0px" y="0px"
	 viewBox="0 0 406 406" style="enable-background:new 0 0 406 406;" xml:space="preserve">
<style type="text/css">
	.st0{fill:none;stroke:#000000;stroke-width:19;stroke-miterlimit:10;}
	.st1{fill:none;stroke:#000000;stroke-width:17.38;stroke-miterlimit:10;}
	.st2{fill:none;}
	.st3{fill:#2E368F;stroke:#F7941D;stroke-width:6;stroke-miterlimit:10;}
	.st4{fill:none;stroke:#1B6394;stroke-width:10;stroke-miterlimit:10;}
</style>
<path class="st0" d="M17.5,320.5"/>
<path class="st0" d="M17.3,411.5"/>
<path class="st1" d="M27.9,384.8"/>
<path class="st0" d="M156.7,260.9"/>
<line class="st2" x1="152.1" y1="157.1" x2="213.1" y2="157.1"/>
<path class="st3" d="M17.5,320.1"/>
<g>
	<path class="st4" d="M245.1,244.2c0.5-0.9,0.8-1.9,1.4-2.6c15.1-17.4,30.3-34.8,45.3-52.3c1.6-1.8,3.3-2.5,5.7-2.7
		c11.1-1,22.1-2,33.1-3.1c4.3-0.4,5.1,0.1,5.1,4.3c0,47.9,0,95.7,0,143.6c0,4.2-0.2,4.4-4.4,4.4c-85.6,0-171.3-0.1-256.9-0.1
		c-3.8,0-4.1-0.3-4.1-4c0-6.1,0.1-12.1-0.1-18.2c-0.1-2.8,1-4.1,3.6-4.9c33-11.2,66-22.4,98.9-33.7c1.8-0.6,3.6-1.7,5.1-3
		c4.2-3.8,8.2-7.6,12.1-11.7c2.1-2.2,4.3-3.3,7.3-2.9c1,0.1,2.1,0,3.5,0c-4.2-8.3-3.3-17-4.6-25.4c-0.9-5.5-1.3-11.1-1.8-16.7
		c-0.2-1.9-1.1-2.7-3-2.7c-4.8-0.2-9.5-0.4-14.3-0.7c-1.9-0.1-2.3,1.1-2.8,2.4c-3.2,8-6.6,15.9-9.6,24c-3.3,9.1-9,16.6-15.1,23.8
		c-6.1,7.2-12.1,14.5-18.1,21.8c-5.5,6.7-13.9,7.2-20.9,1.4c-6.8-5.7-7.6-14.1-1.9-20.7c7.8-8.9,15.8-17.7,23.7-26.5
		c0.9-1.1,1.8-2.4,2.3-3.7c3.8-9.6,7.4-19.3,11.2-29c0.7-1.7,0.6-2.9-0.7-4.4c-7.2-9.1-8.3-19.1-4-29.7c2.4-5.9,2.9-3.9-1.9-8.6
		c-2.2-2.2-4.6-4.2-6.8-6.4c-5.7-5.8-7.7-12.8-4.5-20.2c5.9-13.6,12.3-27.1,18.8-40.4c3.3-6.7,11.5-10.3,18.9-9.1
		c8.4,1.3,14.7,7,16.2,14.7c0.3,1.6,0.6,3.3,0.6,4.9c0,2.3,0.7,3.3,3.2,3.7c11.1,1.6,17.4,8.8,21,18.7c1.6,4.3,2,9.1,3,14.1
		c0.4,0,1.3,0.3,2.3,0.3c8,0,16-0.1,24,0.1c2.4,0,3.2-0.7,3.1-3.1c-0.1-8.6-0.1-17.3-0.1-25.9c0-0.7-0.3-1.7,0.1-2.2
		c0.6-0.9,1.5-2.1,2.4-2.1c0.8,0,2.1,1.2,2.2,2.1c0.3,2.1,0.2,4.2,0.2,6.3c0,8-0.1,16,0.1,24c0,1.4,0.7,3,1.6,4.1
		c4.3,4.8,4.3,11.1,0,16c-0.9,1-1.6,2.7-1.6,4.1c-0.1,24.9-0.1,49.8-0.1,74.7c0,0.9,0.1,1.7,0.2,2.6
		C244.3,243.6,244.7,243.9,245.1,244.2z M203,331.1L203,331.1c41.3-0.1,82.5-0.1,123.8-0.1c4.2,0,4.2,0,4.2-4.2
		c0-44.7,0-89.5-0.1-134.2c0-0.6,0-1.1,0-1.7c0.1-1.8-0.6-2.4-2.4-2.2c-9.7,1-19.4,1.8-29,2.7c-2.1,0.2-3.7,1.1-5.1,2.7
		c-18.9,21.8-37.9,43.5-56.8,65.3c-1.8,2.1-3.8,3-6.6,3c-11.2-0.2-22.4-0.1-33.6,0c-1.4,0-3,0.7-4.1,1.6c-4.4,4-8.6,8.3-13,12.3
		c-1.2,1.1-2.8,2.1-4.4,2.7c-9.6,3.4-19.3,6.6-28.9,9.9c-22.9,7.7-45.9,15.5-68.8,23.2c-2.4,0.8-3.5,1.9-3.3,4.5
		c0.2,3.6,0,7.2,0.1,10.7c0,3.9,0,3.9,4,3.9C120.3,331.1,161.6,331.1,203,331.1z M217,160.5L217,160.5c3.9,0,7.7,0,11.6,0
		c3.3,0,6.6,0,9.9-0.3c2.9-0.3,4.6-2.2,5.1-5c0.5-2.6-0.5-4.9-2.7-6.1c-1.4-0.8-3.3-1.2-5-1.2c-8.9-0.1-17.8-0.1-26.7-0.1
		c-5.3,0-5.6-0.2-5.4-5.4c0.3-7.7-1.7-14.6-6.6-20.7c-9.7-12.1-26.7-7.9-31.9,4.6c-1.7,4.1-3.5,8.3-5.2,12.4
		c-5.1,12.3-10.6,24.4-15.2,36.9c-5.1,13.7,4,28.6,18.4,30.3c10.3,1.2,20.7,1.3,31,1.7c2.6,0.1,4,0.8,4.3,3.7
		c1.3,12.4,2.8,24.8,4.1,37.1c0.6,5.7,5.1,9.6,10.2,8.8c5.2-0.8,8.5-5.8,7.6-11.2c-2.2-12.6-4.4-25.2-6.5-37.9
		c-1.5-9.1-6.2-15.2-15.2-17.9c-8.5-2.6-16.9-5.5-25.3-8.3c-1.7-0.6-3.6-1.1-2.9-3.5c0.7-2.3,2.6-1.8,4.3-1.2
		c1.9,0.6,3.9,1.1,5.8,1.9c1.9,0.8,2.8,0.3,3.6-1.5c1.8-4.1,3.7-8.2,5.7-12.2c0.9-1.8,0.8-3.1-0.1-4.8c-3.4-6.4-6.7-12.8-9.9-19.3
		c-0.4-0.8,0.3-2.2,0.6-3.4c1.2,0.3,2.5,0.5,3.6,1c0.5,0.3,0.7,1.2,1.1,1.9c3,5.9,6.1,11.7,9.1,17.6c0.8,1.6,1.8,2.3,3.6,2.2
		C204.3,160.5,210.6,160.5,217,160.5z M188,181.4c4.9,1.6,9.5,3.1,14.1,4.7c8.4,2.8,13.8,8.5,16,17.1c1,3.7,1.4,7.6,2.1,11.3
		c1.7,10,3.5,20,5.2,30c0.7,4.4,0.1,8.5-2.8,12.7c2.7,0,4.6,0.1,6.5,0c1.4-0.1,3.3,0.2,4.2-0.6c2.4-2.1,4.3-4.8,6.3-7.2
		c0.2-0.2,0-0.7-0.1-1c-0.2-1.4-0.5-2.9-0.5-4.3c0-25.2,0-50.3-0.1-75.5c0-1.5,0.5-3.2-2.1-3.2c-13.1,0.1-26.3,0-39.4,0.1
		c-0.8,0-2,0.4-2.3,1C192.7,171.3,190.5,176.2,188,181.4z M150.6,206.2c-0.6,1.4-1,2.3-1.3,3.2c-3.2,8.3-6.2,16.7-9.7,24.8
		c-1.3,3.1-3.2,6.2-5.4,8.7c-7,8.1-14.4,16-21.4,24.1c-1.5,1.8-2.7,4.2-3.1,6.5c-0.6,4,2.4,8,6.8,10c3.6,1.6,7.7,0.8,10.5-2.4
		c3.9-4.5,7.7-9.2,11.5-13.7c9.4-11.1,19.2-22,23.6-36.4c2-6.4,4.9-12.6,7.6-19.4C162.9,211.3,156.5,210.3,150.6,206.2z M145,161.5
		c0.7-1.6,1.1-2.4,1.4-3.2c4.8-11.3,9.5-22.6,14.3-34c2.4-5.8,6.5-10,12.1-12.6c4.9-2.3,4.9-2.2,4.4-7.5c-0.6-6.2-5.3-11.5-11-12.6
		c-6.6-1.3-12.7,1.3-15.6,7.1c-6.2,12.8-12.2,25.7-18,38.6c-2.1,4.5-1.6,9.4,1.6,13.3C137.3,154.4,141.1,157.6,145,161.5z"/>
	<path class="st4" d="M228.9,91.1c0,11.3-9.1,20.3-20.6,20.3s-20.6-9.3-20.6-21c0-11.1,9.4-20.2,20.8-20.1
		C220.1,70.3,228.9,79.3,228.9,91.1z M208.5,75.4C200,75.3,193,82,192.9,90.2c-0.1,9.2,6.5,16.2,15.4,16.3
		c8.4,0.1,15.6-6.9,15.8-15.2C224.2,82.6,217.2,75.4,208.5,75.4z"/>
</g>
</svg>
