<?xml version="1.0" encoding="utf-8"?>
<!-- Generator: Adobe Illustrator 26.0.1, SVG Export Plug-In . SVG Version: 6.00 Build 0)  -->
<svg version="1.1" id="Layer_1" xmlns="http://www.w3.org/2000/svg" xmlns:xlink="http://www.w3.org/1999/xlink" x="0px" y="0px"
	 viewBox="0 0 406 406" style="enable-background:new 0 0 406 406;" xml:space="preserve">
<style type="text/css">
	.st0{fill:none;stroke:#000000;stroke-width:19;stroke-miterlimit:10;}
	.st1{fill:none;}
	.st2{fill:none;stroke:#000000;stroke-width:17.38;stroke-miterlimit:10;}
	.st3{fill:#1B6394;stroke:#1B6394;stroke-miterlimit:10;}
</style>
<path class="st0" d="M17.5,320.5"/>
<path class="st0" d="M17.3,411.5"/>
<line class="st1" x1="72.3" y1="211.6" x2="17.3" y2="215.6"/>
<line class="st1" x1="342.3" y1="197.6" x2="403.3" y2="197.6"/>
<path class="st2" d="M28.1,302.1"/>
<path class="st2" d="M27.9,384.8"/>
<g>
	<path class="st3" d="M145.4,128.1v61.8c0,13.2-6.6,24.8-16.8,31.9v106c0,9-7.4,16.2-16.6,16.2h-0.4c-9.2,0-16.6-7.3-16.6-16.2
		V227.7c-17.1-4.4-29.6-19.7-29.6-37.8V128c0-5.5,4.6-10,10.3-10h0.2c5.6,0,10.3,4.5,10.3,10v42.7c0,0.8-0.1,1.6-0.3,2.4h10.2v-44.9
		c0-5.6,4.6-10.1,10.4-10.1c2.9,0,5.4,1.2,7.3,3c1.9,1.9,3.1,4.3,3.1,7.2v44.9h7.9v-44.9c0-5.6,4.6-10.1,10.4-10.1
		c2.9,0,5.4,1.2,7.3,3C144.2,122.8,145.4,125.3,145.4,128.1z"/>
	<path class="st3" d="M243.1,61.9v265.9c0,8.2-5.9,14.9-13.6,16.2h-6.2c-7.8-1.4-13.7-8.2-13.7-16.2V240h-33.5V128.8
		C175.9,91.8,205.9,61.9,243.1,61.9z"/>
	<path class="st3" d="M340.6,144v65c0,12-6.8,22.3-16.8,27.5v91.3c0,8.2-5.9,14.9-13.6,16.2H304c-7.8-1.4-13.7-8.2-13.7-16.2v-91.2
		c-10-5.1-16.8-15.5-16.8-27.5v-65c0-17.1,13.9-30.9,31-30.9h5C326.8,113.1,340.6,126.9,340.6,144z"/>
</g>
</svg>
