<?xml version="1.0" encoding="utf-8"?>
<!-- Generator: Adobe Illustrator 26.0.1, SVG Export Plug-In . SVG Version: 6.00 Build 0)  -->
<svg version="1.1" id="Layer_1" xmlns="http://www.w3.org/2000/svg" xmlns:xlink="http://www.w3.org/1999/xlink" x="0px" y="0px"
	 viewBox="0 0 406 406" style="enable-background:new 0 0 406 406;" xml:space="preserve">
<style type="text/css">
	.st0{fill:none;stroke:#000000;stroke-width:0.918;stroke-miterlimit:10;}
	.st1{fill:none;stroke:#000000;stroke-width:19;stroke-miterlimit:10;}
	.st2{fill:#2E368F;stroke:#F7941D;stroke-width:5.508;stroke-miterlimit:10;}
	.st3{fill:#1B6394;stroke:#1B6394;stroke-width:5.508;stroke-miterlimit:10;}
	.st4{fill:none;}
	.st5{fill:none;stroke:#000000;stroke-width:17.38;stroke-miterlimit:10;}
	.st6{fill:none;stroke:#000000;stroke-width:18.7345;stroke-miterlimit:10;}
	.st7{fill:none;stroke:#000000;stroke-width:17.1386;stroke-miterlimit:10;}
	.st8{fill:#FFFFFF;stroke:#1B6394;stroke-width:8.907;stroke-miterlimit:10;}
	.st9{fill:#1B6394;}
	.st10{fill:#FFFFFF;}
	.st11{fill:none;stroke:#1B6394;stroke-width:4.8824;stroke-miterlimit:10;}
</style>
<circle class="st0" cx="202.9" cy="208.5" r="183.6"/>
<path class="st1" d="M17.5,320.5"/>
<path class="st1" d="M17.3,411.5"/>
<circle class="st2" cx="202.8" cy="207.8" r="183.6"/>
<circle class="st3" cx="202.9" cy="208.2" r="183.6"/>
<line class="st4" x1="72.3" y1="211.6" x2="17.3" y2="215.6"/>
<line class="st4" x1="342.3" y1="197.6" x2="403.3" y2="197.6"/>
<path class="st5" d="M28.1,302.1"/>
<path class="st5" d="M27.9,384.8"/>
<path class="st1" d="M558.4,396.8"/>
<path class="st6" d="M440.8,308.9"/>
<path class="st7" d="M451.3,290.8"/>
<line class="st4" x1="429" y1="20.4" x2="490" y2="20.4"/>
<path class="st1" d="M488.5,264.3"/>
<path class="st1" d="M488.3,355.3"/>
<g>
	<ellipse class="st8" cx="236.6" cy="139.9" rx="53.2" ry="45.3"/>
	<path class="st8" d="M317.6,318.5H155.9c-9.6,0-17.5-7.8-17.5-17.5v-28c0-48.5,39.3-87.9,87.9-87.9h21.1
		c48.5,0,87.9,39.3,87.9,87.9v28C335.2,310.7,327.2,318.5,317.6,318.5z"/>
</g>
<g>
	<ellipse class="st9" cx="196" cy="147.5" rx="54.8" ry="46.6"/>
	<path class="st9" d="M279.2,331.6H112.6c-9.9,0-18.1-8.1-18.1-18.1v-28.7c0-50,40.5-90.5,90.5-90.5h21.8c50,0,90.5,40.5,90.5,90.5
		v28.8C297.4,323.5,289.4,331.6,279.2,331.6z"/>
</g>
<g>
	<ellipse class="st10" cx="183.6" cy="147.5" rx="54.7" ry="46.6"/>
	<path class="st10" d="M266.9,331.6H100.1c-10,0-18.1-8.1-18.1-18.1v-28.8c0-50,40.6-90.5,90.5-90.5h21.8c50,0,90.5,40.5,90.5,90.5
		v28.8C284.9,323.5,276.9,331.6,266.9,331.6z"/>
</g>
<circle class="st11" cx="202.8" cy="207.8" r="199.8"/>
</svg>
