<?xml version="1.0" encoding="utf-8"?>
<!-- Generator: Adobe Illustrator 26.0.1, SVG Export Plug-In . SVG Version: 6.00 Build 0)  -->
<svg version="1.1" id="Layer_1" xmlns="http://www.w3.org/2000/svg" xmlns:xlink="http://www.w3.org/1999/xlink" x="0px" y="0px"
	 viewBox="0 0 406 406" style="enable-background:new 0 0 406 406;" xml:space="preserve">
<style type="text/css">
	.st0{fill:none;stroke:#000000;stroke-width:19;stroke-miterlimit:10;}
	.st1{fill:none;}
	.st2{fill:none;stroke:#000000;stroke-width:17.38;stroke-miterlimit:10;}
	.st3{fill:none;stroke:#000000;stroke-width:18.7345;stroke-miterlimit:10;}
	.st4{fill:none;stroke:#000000;stroke-width:17.1386;stroke-miterlimit:10;}
	.st5{fill:none;stroke:#000000;stroke-miterlimit:10;}
	.st6{fill:none;stroke:#F7941D;stroke-width:6;stroke-miterlimit:10;}
	.st7{fill:none;stroke:#000000;stroke-width:17.3815;stroke-miterlimit:10;}
	.st8{fill:#1B6394;stroke:#1B6394;stroke-miterlimit:10;}
	.st9{fill:#1B6394;}
</style>
<path class="st0" d="M17.5,320.5"/>
<path class="st0" d="M17.3,411.5"/>
<line class="st1" x1="72.3" y1="211.6" x2="17.3" y2="215.6"/>
<line class="st1" x1="342.3" y1="197.6" x2="403.3" y2="197.6"/>
<path class="st2" d="M28.1,302.1"/>
<path class="st2" d="M27.9,384.8"/>
<path class="st0" d="M558.4,396.8"/>
<path class="st2" d="M558.4,370.1"/>
<path class="st3" d="M440.8,308.9"/>
<path class="st4" d="M451.3,290.8"/>
<line class="st1" x1="429" y1="20.4" x2="490" y2="20.4"/>
<path class="st0" d="M488.5,264.3"/>
<path class="st0" d="M488.3,355.3"/>
<path class="st0" d="M-2.4-117.7"/>
<path class="st5" d="M85.7-124.8"/>
<path class="st6" d="M85.6-125.5"/>
<path class="st7" d="M-89.5-143.7"/>
<g>
	<path class="st8" d="M390.7,197.6l-3.3-3.2c-42.5-41.1-106-66-174.2-68.3c-77-2.6-149.9,23.8-195,70.7l-7.2,7.5l7.6,7.4
		c1.2,1.2,2.5,2.4,3.8,3.6c1.9,1.7,3.8,3.4,5.7,5c5.5,4.7,11.3,9.2,17.4,13.4c40.3,27.9,92.2,44.5,147.3,46.3
		c77,2.6,149.8-23.8,195-70.7l7.2-7.5L390.7,197.6z M193.8,256.2c-47.2-1.6-91.7-15.5-126.6-38.8c-2.4-1.6-4.7-3.2-7-4.9
		c-3.7-2.7-7.3-5.6-10.8-8.5c39.6-36.1,99.6-56.2,162.8-54.1c52.9,1.8,102.5,19,138.9,47.8c1.9,1.5,3.7,3,5.5,4.6
		C317,238.2,257,258.3,193.8,256.2z"/>
</g>
<path class="st9" d="M245,203.1c0,23.2-18.8,42-42,42s-42-18.8-42-42s18.8-42,42-42c2,0,3.9,0.1,5.7,0.4c-4.1,4.2-6.5,9.8-6.5,15.9
	c0,13.1,11.4,23.8,25.5,23.8c6.3,0,12.1-2.2,16.6-5.7C244.8,197.9,245,200.5,245,203.1z"/>
</svg>
